HIERARCHY
ROOT Hips
{
  OFFSET 196.326 95.9168 97.7182
  CHANNELS 6 Xposition Yposition Zposition Zrotation Xrotation Yrotation
  JOINT LeftUpLeg
  {
    OFFSET 8.64259 1.95398 -2.38835
    CHANNELS 3 Zrotation Xrotation Yrotation
    JOINT LeftLeg
    {
      OFFSET 43.7702 0 0
      CHANNELS 3 Zrotation Xrotation Yrotation
      JOINT LeftFoot
      {
        OFFSET 40.6238 0 0
        CHANNELS 3 Zrotation Xrotation Yrotation
        JOINT LeftToeBase
        {
          OFFSET 12.7242 0 0
          CHANNELS 3 Zrotation Xrotation Yrotation
          End Site
          {
            OFFSET 0 0 0
          }
        }
      }
    }
  }
  JOINT RightUpLeg
  {
    OFFSET -8.2249 1.95398 -2.59336
    CHANNELS 3 Zrotation Xrotation Yrotation
    JOINT RightLeg
    {
      OFFSET 43.5653 0 0
      CHANNELS 3 Zrotation Xrotation Yrotation
      JOINT RightFoot
      {
        OFFSET 40.6238 0 0
        CHANNELS 3 Zrotation Xrotation Yrotation
        JOINT RightToeBase
        {
          OFFSET 12.7242 0 0
          CHANNELS 3 Zrotation Xrotation Yrotation
          End Site
          {
            OFFSET 0 0 0
          }
        }
      }
    }
  }
  JOINT Spine
  {
    OFFSET 0.165834 0.87714 6.61349
    CHANNELS 3 Zrotation Xrotation Yrotation
    JOINT Spine1
    {
      OFFSET 7.38963 1.71661e-005 0
      CHANNELS 3 Zrotation Xrotation Yrotation
      JOINT Spine2
      {
        OFFSET 11.9445 1.14441e-005 0
        CHANNELS 3 Zrotation Xrotation Yrotation
        JOINT Spine3
        {
          OFFSET 14.7254 4.19617e-005 0
          CHANNELS 3 Zrotation Xrotation Yrotation
          JOINT Spine4
          {
            OFFSET 10.9679 0 0
            CHANNELS 3 Zrotation Xrotation Yrotation
            JOINT RightShoulder
            {
              OFFSET 2.46616 -1.6653 3.69651
              CHANNELS 3 Zrotation Xrotation Yrotation
              JOINT RightArm
              {
                OFFSET 13.0012 0 0
                CHANNELS 3 Zrotation Xrotation Yrotation
                JOINT RightForeArm
                {
                  OFFSET 28.7848 1.52588e-005 0
                  CHANNELS 3 Zrotation Xrotation Yrotation
                  JOINT RightHand
                  {
                    OFFSET 26.5688 1.52588e-005 0
                    CHANNELS 3 Zrotation Xrotation Yrotation
                    End Site
                    {
                      OFFSET 0 0 0
                    }
                  }
                }
              }
            }
            JOINT LeftShoulder
            {
              OFFSET 2.38034 -1.29275 -3.75231
              CHANNELS 3 Zrotation Xrotation Yrotation
              JOINT LeftArm
              {
                OFFSET 16.3182 6.10351e-005 0
                CHANNELS 3 Zrotation Xrotation Yrotation
                JOINT LeftForeArm
                {
                  OFFSET 27.0901 0 0
                  CHANNELS 3 Zrotation Xrotation Yrotation
                  JOINT LeftHand
                  {
                    OFFSET 24.5451 1.52588e-005 0
                    CHANNELS 3 Zrotation Xrotation Yrotation
                    End Site
                    {
                      OFFSET 0 0 0
                    }
                  }
                }
              }
            }
            JOINT Neck
            {
              OFFSET 5.0226 -0.0266342 0
              CHANNELS 3 Zrotation Xrotation Yrotation
              JOINT Head
              {
                OFFSET 6.69363 2.86102e-005 0
                CHANNELS 3 Zrotation Xrotation Yrotation
                End Site
                {
                  OFFSET 0 0 0
                }
              }
            }
          }
        }
      }
    }
  }
}
MOTION
Frames:	17
Frame Time:	0.0416667
71.6691 95.6935 159.595 76.7548 -39.9131 84.3241 -168.841 34.7954 82.13 -20.3941 5.99358 -7.41168 61.4111 2.80172 9.47075 49.252 19.0102 -14.3202 173.51 -1.29694 93.6649 -33.3908 -13.6847 2.94322 42.5177 4.9358 4.599 45.0079 2.93319 23.561 2.30541 7.23943 -89.3999 12.3916 4.86632 0.645009 0.729696 4.88997 0.429696 -21.868 4.44708 2.08045 -1.85532 4.44707 2.08045 85.5327 -39.2762 -111.363 18.0002 -3.14051 3.59189 -17.4226 -1.96789 -78.6121 -5.09153 -0.422383 2.47743 -87.2009 -32.8004 79.4012 -54.4889 2.13725 49.9523 -2.51193 35.794 -12.485 -14.1301 -0.79354 2.45198 0.161186 -10.765 2.71163 7.35514 -11.8204 -6.26227 
75.7019 95.2517 164.365 76.3822 -39.4407 83.5599 -169.59 34.2523 80.9778 -26.8371 5.20108 -5.65724 66.407 9.86017 13.3017 45.4711 14.6856 -21.5877 171.443 2.10677 91.6823 -43.0024 -7.1909 2.82343 43.3472 3.67892 3.51458 42.5294 1.87161 17.4363 2.02976 7.11935 -89.3844 12.629 4.32556 0.72348 0.96514 4.35318 0.532048 -21.6178 3.90787 1.99186 -1.60512 3.90789 1.99186 85.1476 -42.0286 -110.952 18.6221 -2.41403 3.92943 -17.4954 -2.33136 -77.9207 -4.79998 -0.344007 0.416604 -89.6139 -35.2297 75.6792 -57.1137 1.46721 48.0612 -3.44655 36.5362 -10.8476 -20.5102 -1.28421 3.09834 2.12677 -10.0923 2.27589 6.36323 -10.8875 -4.8029 
79.0887 95.2289 168.442 77.3864 -39.9975 82.2999 -169.47 29.9654 79.9482 -27.8149 3.37649 -5.37022 69.5951 14.7613 15.5022 43.9952 12.8432 -27.5447 170.702 8.52819 88.6076 -55.3478 -1.51075 0.840561 48.1692 1.57792 1.53825 39.7732 1.13926 13.648 1.79038 7.29988 -89.2841 12.2619 3.89765 0.991154 0.596582 3.93749 0.818384 -21.9737 3.41945 2.11786 -1.96107 3.41943 2.11784 83.832 -44.1428 -112.29 19.74 -1.15639 5.70422 -14.9481 -3.59977 -74.6469 -7.9894 -0.446838 0.318676 -93.9408 -39.5548 69.6215 -58.5408 3.79886 41.8117 -2.59275 36.5959 -12.8494 -22.5613 -1.44351 3.20054 3.77827 -9.30656 3.01248 6.8048 -10.2473 -4.60853 
82.3472 95.9612 171.985 77.7677 -40.4914 82.1495 -170.333 25.0447 80.3393 -25.093 2.22873 -4.67731 71.1357 17.4868 16.5063 42.4262 11.6268 -29.1544 171.844 15.9419 88.241 -62.4695 3.85219 -0.787307 53.3269 -0.454084 -0.0897461 36.5103 0.535805 12.3806 1.54809 7.38022 -89.3951 12.1045 3.36343 0.837065 0.437758 3.397 0.688053 -22.1237 2.95628 1.80994 -2.11104 2.95628 1.80993 83.677 -45.164 -112.15 22.6864 -1.72824 7.73955 -13.0312 -3.73371 -70.3307 -12.0768 -0.637181 0.826634 -95.1876 -41.4928 68.2697 -56.153 8.49756 33.1821 -0.0275599 37.4601 -17.4391 -17.6638 -1.18745 3.69415 3.75278 -8.135 4.26737 8.43125 -9.33691 -4.33628 
86.0299 97.1041 175.295 77.0151 -37.7571 82.7424 -172.326 20.5749 81.1216 -20.0341 4.23398 -3.25761 68.8964 17.5843 18.2906 46.1956 14.1966 -28.4199 172.427 23.2679 88.886 -63.9472 8.72213 -0.73317 57.133 -1.74262 -0.971019 36.9634 0.616314 12.5174 1.01513 7.34157 -89.5985 12.1868 2.20779 0.556644 0.51759 2.23014 0.458894 -22.0287 1.93839 1.19465 -2.01605 1.93841 1.19465 83.1782 -47.0855 -112.211 24.8594 -1.99117 10.3119 -11.6804 -4.6245 -64.719 -14.5209 -0.68649 0.34056 -94.9383 -41.1761 68.5602 -51.9863 10.3004 24.9859 6.1353 33.0812 -25.7029 -2.89219 -0.112513 7.25995 4.58085 -7.00231 2.61257 8.63181 -7.58595 -1.55601 
89.5239 98.4718 178.341 78.4923 -35.0126 84.7474 -174.408 14.1603 82.314 -13.9053 7.84001 -1.95615 63.9806 15.0706 20.0727 52.146 18.4426 -27.0632 172.741 27.7688 88.8092 -60.9087 9.90484 -0.12383 59.3578 -1.91817 -1.06502 41.7821 1.48224 13.166 0.547346 7.45848 -89.8987 11.957 1.1361 0.0790988 0.286551 1.13847 0.0290026 -22.2522 1.05978 0.416924 -2.23952 1.05978 0.416913 82.1794 -49.1814 -112.958 25.0093 -2.46144 13.7208 -10.2996 -6.13851 -58.3 -15.3879 -0.681614 0.029227 -96.6979 -41.4324 65.8196 -46.3805 9.24165 18.4176 11.3178 23.9717 -35.4226 11.3287 1.65244 10.0623 3.62122 -6.17735 3.42085 8.83262 -6.90661 -1.6113 
93.0433 99.5597 181.675 78.2149 -33.2686 86.1162 -175.184 9.67007 84.0724 -9.76459 7.16441 -0.759415 62.491 12.4025 16.3339 51.8102 18.7628 -24.5511 173.661 31.7578 89.1174 -53.8701 8.49902 0.808214 61.856 -1.93352 -1.06502 43.8374 1.79958 12.536 0.174211 7.37187 -90.1915 12.1296 0.255666 -0.410974 0.458634 0.237343 -0.421828 -22.0764 0.367375 -0.315126 -2.06372 0.367375 -0.315135 82.1078 -49.6782 -112.881 26.5941 -3.0803 16.2094 -9.55516 -7.83401 -51.4564 -14.5542 -0.763734 0.991976 -97.2379 -41.1764 64.8551 -40.2395 6.66237 12.3519 13.829 15.0514 -45.6608 23.3271 3.27405 10.3178 2.65612 -5.3985 2.85708 8.97058 -5.86531 -0.438991 
96.4243 100.002 185.35 77.673 -32.4997 86.0373 -174.725 6.50378 85.36 -8.02459 8.25654 -0.637988 62.2736 11.046 14.8643 52.1544 20.1522 -19.688 175.172 34.8961 88.2913 -43.9693 8.3073 1.54436 63.543 -1.84102 -0.991466 45.7841 1.98916 10.7737 -0.104555 7.27809 -90.2555 12.3167 -0.32893 -0.472597 0.645713 -0.349396 -0.457678 -21.8889 -0.171691 -0.549604 -1.87622 -0.171683 -0.549606 82.1521 -50.6857 -112.449 27.2875 -4.19163 17.9765 -8.35013 -9.95946 -44.8699 -11.25 -0.674076 1.55792 -97.1982 -40.7442 64.7484 -33.7862 1.38676 6.73763 16.8983 8.90358 -57.3713 20.3855 2.56579 8.75448 2.0075 -4.85032 1.53966 9.31862 -4.97216 0.522289 
99.7637 99.7106 189.268 77.9801 -31.8808 85.9773 -174.119 3.1305 86.3603 -7.83031 10.3067 -0.564924 62.9837 10.6432 13.8569 50.7784 20.7026 -12.7422 176.754 35.601 87.0745 -31.0221 9.96212 2.15607 65.9155 -2.0948 -1.12349 47.2295 2.16658 10.2189 -0.361439 7.23697 -90.2282 12.3986 -0.826583 -0.361338 0.727925 -0.841682 -0.324619 -21.8084 -0.679779 -0.593073 -1.79572 -0.679769 -0.593061 81.6035 -52.0547 -112.76 27.5356 -4.77432 20.0098 -7.5605 -12.5478 -38.1405 -8.64888 -0.548881 1.31406 -97.0514 -40.1969 64.7698 -27.1927 -2.44363 0.386249 17.6238 5.78394 -64.9747 19.3777 2.11456 7.07785 1.84313 -4.28696 0.330965 9.1792 -4.16191 0.958746 
103.151 98.6227 193.392 78.4772 -31.0838 84.8921 -173.76 -0.076939 86.6224 -8.35415 12.9044 -0.628739 62.7434 10.9348 15.301 55.1399 24.4614 -12.8013 178.521 35.8951 84.9891 -17.8464 11.0468 1.71308 66.7558 -1.80525 -0.961659 55.387 3.00164 7.84625 -0.627937 7.21105 -90.086 12.4524 -1.28847 -0.0238131 0.782075 -1.28828 0.0329243 -21.7578 -1.22175 -0.410007 -1.74518 -1.22174 -0.410021 80.8425 -52.7519 -113.61 28.0197 -3.70248 23.1565 -8.27821 -14.8187 -34.5275 -4.80268 -0.411063 1.70969 -98.2431 -38.4395 62.092 -20.5226 -6.54022 -4.19516 16.5012 3.21375 -70.7384 18.9353 2.36026 8.60389 2.0281 -3.61804 -0.580247 8.82162 -3.26512 1.64615 
106.649 97.1898 197.657 80.0382 -30.3427 84.8366 -172.626 -3.75926 88.0162 -9.45874 16.777 -1.03482 59.5934 8.72499 16.6173 63.8421 31.3367 -14.2848 -179.239 36.2905 83.6852 -10.9078 15.2436 0.168883 70.4179 -1.66236 -0.86729 50.333 3.32595 15.3931 -0.917739 7.33925 -89.9642 12.1987 -1.80716 0.272521 0.528998 -1.79344 0.351813 -22.0161 -1.80548 -0.283376 -2.00346 -1.8055 -0.283392 81.5701 -53.6575 -112.24 27.8825 -3.69122 25.02 -9.59053 -17.5363 -32.8504 -0.822736 -0.257136 2.39632 -97.6593 -36.3063 62.122 -15.8483 -11.3912 -7.72038 17.5041 3.1356 -74.8202 18.9597 2.12277 7.34307 3.30909 -2.99982 -1.82888 7.63153 -2.33528 2.53573 
110.516 95.4114 201.918 81.3941 -28.812 85.3328 -171.792 -5.23641 89.9015 -15.0138 20.4413 -0.621861 59.3938 7.64384 16.2643 64.343 34.4022 -8.21013 -178.757 37.0587 82.9987 -10.587 15.8446 -0.362149 72.2229 -2.1543 -1.09297 53.1286 4.17677 17.1311 -1.36181 7.38 -89.9973 12.1204 -2.7056 0.304706 0.452146 -2.68957 0.423564 -22.1049 -2.67202 -0.523119 -2.09225 -2.67202 -0.523128 81.794 -53.0676 -112.124 27.9607 -3.42641 27.6534 -10.5375 -18.5819 -32.6713 3.36655 -0.0527852 3.09848 -96.1835 -34.6439 63.9116 -12.1294 -13.7321 -10.6789 16.6328 2.80814 -75.7981 18.0345 2.09178 7.69734 2.90093 -1.93223 -1.3088 7.89336 -1.35584 2.63578 
115.181 93.6551 206.738 82.1157 -27.9345 86.1677 -171.745 -7.17786 91.8616 -19.1742 21.9418 0.7741 57.3215 5.67463 16.1687 64.4155 37.8505 -1.22088 -179.588 38.2107 83.7656 -17.6955 9.57177 0.1426 68.9445 -1.98774 -0.999981 57.9727 3.72419 9.97607 -1.79642 7.41702 -90.2518 12.0445 -3.69027 -0.0993298 0.3788 -3.69106 0.0633975 -22.1951 -3.48962 -1.20517 -2.18243 -3.4896 -1.20518 83.0352 -51.1182 -110.989 27.5832 -3.61908 29.2322 -11.2182 -19.3381 -33.4624 4.19798 -0.00946327 3.2146 -95.5412 -34.1895 64.8303 -9.75431 -15.8056 -9.56358 14.5545 1.75938 -77.8771 18.7136 1.61609 4.81659 4.87448 -0.126547 1.1981 5.97596 -0.0612494 2.5613 
120.286 92.7151 211.966 82.1733 -28.8626 88.2679 -171.085 -8.63071 95.5719 -22.1856 21.6965 1.76097 50.7004 -0.820587 11.4554 67.3434 45.9404 7.55239 179.167 39.3941 86.8861 -27.1742 7.81994 1.17947 65.8932 -1.47042 -0.742825 55.1219 3.51543 11.031 -1.75365 7.44498 -90.5793 11.9763 -3.75961 -0.747726 0.310686 -3.78888 -0.581314 -22.2594 -3.36093 -1.8442 -2.24671 -3.36093 -1.84421 82.9013 -51.5296 -111.045 26.1362 -3.46393 30.1503 -9.83114 -17.0473 -33.1514 2.06593 -0.0745999 3.75635 -96.663 -34.1339 62.8504 -7.12081 -15.3971 -6.52793 12.5402 0.78025 -79.4472 19.5822 1.75199 5.10805 5.14332 0.478681 1.53104 5.72678 0.58332 3.61052 
124.938 92.3378 216.485 82.6542 -30.8762 90.4999 -170.776 -6.74123 98.4405 -29.9273 18.747 2.08824 40.5744 -8.602 5.69585 63.1733 47.3365 17.6347 177.552 39.8428 90.561 -35.9936 9.07765 2.53926 66.5658 -1.79319 -0.900297 44.8374 2.49575 18.5066 -1.54187 7.55739 -90.8662 11.7399 -3.47329 -1.35953 0.0729916 -3.52975 -1.2052 -22.4843 -2.9041 -2.34106 -2.47166 -2.90413 -2.34107 81.5693 -51.749 -112.921 25.1782 -2.57102 29.3313 -8.56501 -15.3136 -31.8433 0.26539 -0.157425 3.99857 -98.1873 -35.1847 60.7138 -6.47177 -15.035 -2.81044 15.0792 1.19412 -80.8401 16.474 1.33295 4.19032 5.89385 1.10581 1.84811 4.35467 1.17031 4.46516 
129.171 92.2763 220.935 83.7775 -31.8086 91.2243 -172.233 -1.06888 99.6105 -45.1629 16.3274 2.46065 36.3771 -11.6434 3.03722 40.7025 14.3461 8.46568 176.991 37.7181 92.5469 -41.2625 9.23568 2.47183 70.8211 -2.91549 -1.47552 39.4193 1.2439 18.5479 -1.39173 7.65669 -90.8768 11.5417 -3.17896 -1.42024 -0.125987 -3.23839 -1.27885 -22.6777 -2.60518 -2.3103 -2.6651 -2.60518 -2.31031 81.0714 -50.4535 -114.133 27.1641 -1.33951 27.606 -8.24556 -14.1226 -31.6924 -1.22888 -0.235015 5.41233 -98.8343 -35.9117 59.9651 -9.31655 -10.2386 -1.23244 14.3919 1.17716 -77.5724 15.3624 1.22601 4.06234 6.17399 1.16393 2.45457 3.74807 0.983204 3.41167 
133.101 93.4489 224.824 85.0873 -34.4323 91.5262 -172.118 6.36179 98.1544 -57.7529 16.5026 1.46516 38.8666 -10.2274 4.51392 38.4906 11.135 3.83163 178.474 32.9837 94.0814 -40.7131 9.16722 0.914297 72.3277 -3.33203 -1.66523 36.9817 0.68212 18.9932 -0.956542 7.70481 -90.8148 11.4502 -2.28361 -1.38959 -0.219436 -2.34256 -1.28772 -22.7588 -1.7605 -2.01166 -2.74619 -1.7605 -2.01166 81.3237 -48.7504 -114.408 29.9899 -0.472991 26.1571 -8.73417 -11.998 -34.6382 -1.66776 -0.258356 6.92948 -99.5586 -38.1086 59.7855 -12.3707 -3.16406 -1.08745 14.6254 2.33162 -71.2451 13.5165 1.06054 3.84145 5.02913 0.741238 3.83218 4.36984 0.254763 2.32584 
